<svg height="512" viewBox="0 0 512 512" width="512" xmlns="http://www.w3.org/2000/svg"><g id="Filled_outline" data-name="Filled outline"><path d="m72 152h368a32 32 0 0 1 32 32v248a24 24 0 0 1 -24 24h-384a24 24 0 0 1 -24-24v-248a32 32 0 0 1 32-32z" fill="#348fd9"/><path d="m430.64 65.36a32.2 32.2 0 0 0 -22.64-9.36h-304a31.991 31.991 0 0 0 -32 32v376h368v-376a32.2 32.2 0 0 0 -9.36-22.64z" fill="#60d1e0"/><g fill="#3fb7c7"><path d="m103.996 80h16v16h-16z"/><path d="m135.996 80h16v16h-16z"/><path d="m167.996 80h16v16h-16z"/><path d="m104 112h200v16h-200z"/></g><path d="m430.64 65.36a32.2 32.2 0 0 0 -22.64-9.36h-304a31.991 31.991 0 0 0 -32 32v376h368v-376a32.2 32.2 0 0 0 -9.36-22.64z" fill="#60d1e0"/><path d="m103.996 80h16v16h-16z" fill="#3fb7c7"/><path d="m135.996 80h16v16h-16z" fill="#3fb7c7"/><path d="m167.996 80h16v16h-16z" fill="#3fb7c7"/><path d="m104 112h200v16h-200z" fill="#3fb7c7"/><path d="m440 160-304 304h304z" fill="#5ac6d4"/><path d="m304 448a27.315 27.315 0 0 1 -19.314 8h-57.372a27.315 27.315 0 0 1 -19.314-8 27.315 27.315 0 0 0 -19.314-8h-164.686v24a24 24 0 0 0 24 24h416a24 24 0 0 0 24-24v-24h-164.686a27.315 27.315 0 0 0 -19.314 8z" fill="#e0e0de"/><path d="m456 440v24a24 24 0 0 1 -24 24h32a24 24 0 0 0 24-24v-24z" fill="#d6d6d4"/><path d="m440 240h32v16h-32z" fill="#3086cd"/><path d="m40 376h32v16h-32z" fill="#3086cd"/><path d="m344 240h96v16h-96z" fill="#5ac6d4"/><path d="m72 328h192v64h-192z" fill="#5ac6d4"/><path d="m328 120h160v120h-160z" fill="#ffb531"/><path d="m344 88h32a32 32 0 0 1 32-32 32 32 0 0 1 32 32v32h32v-32a64 64 0 0 0 -64-64 64 64 0 0 0 -64 64z" fill="#e0e0de"/><path d="m420.071 178.4a16 16 0 1 0 -24.142 0 31.979 31.979 0 0 0 -19.929 29.6h64a31.979 31.979 0 0 0 -19.929-29.6z" fill="#95573a"/><path d="m328 240h160a139.5 139.5 0 0 0 -160 0z" fill="#ffa912"/><path d="m488 120h-160a139.5 139.5 0 0 0 160 0z" fill="#ffcb73"/><path d="m24 312h224v64h-224z" fill="#ffb531"/><path d="m24 312h224v16h-224z" fill="#ffa912"/><path d="m48 184a24.038 24.038 0 0 1 16-22.624v126.624h16v-200a24.027 24.027 0 0 1 24-24h216v-16h-216a40.045 40.045 0 0 0 -40 40v56.805a40.067 40.067 0 0 0 -32 39.195v96h16z"/><path d="m488 432h-8v-168h-16v168h-140.687a35.082 35.082 0 0 0 -24.97 10.343 19.187 19.187 0 0 1 -13.656 5.657h-57.374a19.187 19.187 0 0 1 -13.656-5.657 35.082 35.082 0 0 0 -24.97-10.343h-140.687v-32h-16v32h-8a8 8 0 0 0 -8 8v24a32.036 32.036 0 0 0 32 32h416a32.036 32.036 0 0 0 32-32v-24a8 8 0 0 0 -8-8zm-8 32a16.019 16.019 0 0 1 -16 16h-416a16.019 16.019 0 0 1 -16-16v-16h156.687a19.187 19.187 0 0 1 13.656 5.657 35.082 35.082 0 0 0 24.937 10.343h57.44a35.082 35.082 0 0 0 24.937-10.342 19.187 19.187 0 0 1 13.656-5.658h156.687z"/><path d="m432 264h16v152h-16z"/><path d="m64 400h16v16h-16z"/><path d="m103.995 80h16v16h-16z"/><path d="m135.995 80h16v16h-16z"/><path d="m167.995 80h16v16h-16z"/><path d="m104 112h200v16h-200z"/><path d="m227.123 168.228a80.115 80.115 0 0 1 79.368 7.272l9.212-13.083a95.88 95.88 0 0 0 -110.424 0l9.211 13.083a80.015 80.015 0 0 1 12.633-7.272z"/><path d="m308.734 419.547a199.114 199.114 0 0 0 41.278-63.581l-14.829-6.008a183.211 183.211 0 0 1 -37.977 58.495z"/><path d="m488 112h-8v-24a72 72 0 0 0 -144 0 8 8 0 0 0 8 8h32a8 8 0 0 0 8-8 24 24 0 0 1 48 0v24h-104a8 8 0 0 0 -8 8v72.746a140.969 140.969 0 0 0 -65.28-15.786h-1.12a132.615 132.615 0 0 0 -74.817 23.064l8.994 13.232a116.678 116.678 0 0 1 65.823-20.3h1.12a124.405 124.405 0 0 1 65.28 18.155v19.289a108.391 108.391 0 0 0 -65.27-21.441h-1.12a102.487 102.487 0 0 0 -83.846 44.151l-3.842 5.52 13.135 9.138 3.835-5.512a86.477 86.477 0 0 1 70.718-37.3h1.12c29.838 0 57.333 13.689 73.542 36.611a85.183 85.183 0 0 1 12.528 26.4 83.377 83.377 0 0 1 -.009 45.7l15.4 4.346a99.312 99.312 0 0 0 .009-54.394 101.072 101.072 0 0 0 -14.856-31.278c-1.048-1.482-2.142-2.925-3.267-4.341h149.923a8 8 0 0 0 8-8v-120a8 8 0 0 0 -8-8zm-80-64a40.071 40.071 0 0 0 -39.2 32h-16.23a56 56 0 0 1 111.43 8v24h-16v-24a40.045 40.045 0 0 0 -40-40zm72 184h-144v-104h144z"/><path d="m430.866 175.2a23.515 23.515 0 0 0 1.134-7.2 24 24 0 0 0 -48 0 23.515 23.515 0 0 0 1.134 7.2 39.8 39.8 0 0 0 -17.134 32.8 8 8 0 0 0 8 8h64a8 8 0 0 0 8-8 39.8 39.8 0 0 0 -17.134-32.8zm-45.5 24.8a23.944 23.944 0 0 1 13.586-14.2 8 8 0 0 0 3.036-12.63 7.9 7.9 0 0 1 -1.988-5.17 8 8 0 0 1 16 0 7.9 7.9 0 0 1 -1.988 5.172 8 8 0 0 0 3.036 12.63 23.944 23.944 0 0 1 13.586 14.198z"/><path d="m24 384h162.126l-.983.983 11.314 11.317 12.3-12.3h22.573l-22.43 22.423 11.314 11.314 40.224-40.225a136.529 136.529 0 0 0 33.746-55.337 37.191 37.191 0 0 0 -5.574-33.514 37.972 37.972 0 0 0 -30.933-15.7h-4.077c-16.146 0-30.692 10.613-36.212 26.458-.54 1.584-1.134 3.1-1.788 4.582h-18.3a40.06 40.06 0 0 0 4.982-9.792c7.682-22.279 28.305-37.248 51.317-37.248h4.08a54.488 54.488 0 0 1 43.782 22.163 53.039 53.039 0 0 1 7.947 47.835 152.782 152.782 0 0 1 -37.626 61.865l-29.52 29.52 11.314 11.314 29.52-29.52a168.82 168.82 0 0 0 41.567-68.354 68.883 68.883 0 0 0 -10.294-62.116 70.552 70.552 0 0 0 -56.69-28.707h-4.079c-29.835 0-56.536 19.3-66.443 48.032a25.089 25.089 0 0 1 -5.854 9.351l-5.657 5.656h-151.646a8 8 0 0 0 -8 8v64a8 8 0 0 0 8 8zm229.6-95.04h4.08a22.126 22.126 0 0 1 18.024 9.154 21.346 21.346 0 0 1 3.23 19.229 118.623 118.623 0 0 1 -22.934 41.426v-28.337a102.983 102.983 0 0 0 8.636-21.394 2 2 0 0 0 -1.6-2.487l-15.036-2.551h-15.24c3.459-9.155 11.563-15.04 20.84-15.04zm-221.6 31.04h208v48h-208z"/><path d="m48 336h16v16h-16z"/><path d="m80 336h16v16h-16z"/><path d="m112 336h16v16h-16z"/><path d="m144 336h16v16h-16z"/></g></svg>