<?xml version="1.0"?>
<svg xmlns="http://www.w3.org/2000/svg" viewBox="0 0 64 64" width="512" height="512"><g id="Filled_outline" data-name="Filled outline"><rect x="3" y="12" width="58" height="40" style="fill:#113142"/><rect x="3" y="26" width="16" height="12" style="fill:#98a1a1"/><rect x="45" y="26" width="16" height="12" style="fill:#98a1a1"/><rect x="24" y="26" width="16" height="12" style="fill:#98a1a1"/><rect x="3" y="16" width="7" height="6" style="fill:#98a1a1"/><rect x="14" y="16" width="4" height="6" style="fill:#98a1a1"/><rect x="22" y="16" width="4" height="6" style="fill:#98a1a1"/><rect x="30" y="16" width="4" height="6" style="fill:#98a1a1"/><rect x="38" y="16" width="4" height="6" style="fill:#98a1a1"/><rect x="46" y="16" width="4" height="6" style="fill:#98a1a1"/><rect x="54" y="16" width="7" height="6" style="fill:#98a1a1"/><rect x="3" y="42" width="7" height="6" style="fill:#98a1a1"/><rect x="14" y="42" width="4" height="6" style="fill:#98a1a1"/><rect x="22" y="42" width="4" height="6" style="fill:#98a1a1"/><rect x="30" y="42" width="4" height="6" style="fill:#98a1a1"/><rect x="38" y="42" width="4" height="6" style="fill:#98a1a1"/><rect x="46" y="42" width="4" height="6" style="fill:#98a1a1"/><rect x="54" y="42" width="7" height="6" style="fill:#98a1a1"/><rect x="6" y="29" width="2" height="2" style="fill:#fff"/><rect x="10" y="29" width="2" height="2" style="fill:#fff"/><rect x="56" y="33" width="2" height="2" style="fill:#fff"/><path d="M23,39H41V25H23Zm2-12H39V37H25Z"/><path d="M13,23h6V15H13Zm2-6h2v4H15Z"/><path d="M27,15H21v8h6Zm-2,6H23V17h2Z"/><path d="M35,15H29v8h6Zm-2,6H31V17h2Z"/><path d="M37,23h6V15H37Zm2-6h2v4H39Z"/><path d="M51,15H45v8h6Zm-2,6H47V17h2Z"/><path d="M13,49h6V41H13Zm2-6h2v4H15Z"/><path d="M21,49h6V41H21Zm2-6h2v4H23Z"/><path d="M29,49h6V41H29Zm2-6h2v4H31Z"/><path d="M37,49h6V41H37Zm2-6h2v4H39Z"/><path d="M45,49h6V41H45Zm2-6h2v4H47Z"/><path d="M2,53H62V11H2Zm58-6H55V43h5Zm0-10H46V27H60Zm0-16H55V17h5ZM4,17H9v4H4ZM4,27H18V37H4ZM4,43H9v4H4Zm0,6h7V41H4V39H20V25H4V23h7V15H4V13H60v2H53v8h7v2H44V39H60v2H53v8h7v2H4Z"/><rect x="6" y="29" width="2" height="2"/><rect x="10" y="29" width="2" height="2"/><rect x="56" y="33" width="2" height="2"/></g></svg>
