<svg height="512" viewBox="0 0 512 512" width="512" xmlns="http://www.w3.org/2000/svg"><g id="Filled_outline" data-name="Filled outline"><rect fill="#4db6e4" height="176" rx="16" width="272" x="120" y="24"/><path d="m120 136h272a0 0 0 0 1 0 0v48a16 16 0 0 1 -16 16h-240a16 16 0 0 1 -16-16v-48a0 0 0 0 1 0 0z" fill="#3ba5d3"/><rect fill="#348ed8" height="64" rx="8" width="96" x="24" y="248"/><path d="m96 344h-48l8-32h32z" fill="#d5d5d3"/><path d="m92 328h-40l4-16h32z" fill="#cececc"/><rect fill="#348ed8" height="64" rx="8" width="96" x="392" y="240"/><path d="m464 336h-48l8-32h32z" fill="#d5d5d3"/><path d="m460 320h-40l4-16h32z" fill="#cececc"/><rect fill="#348ed8" height="64" rx="8" width="96" x="24" y="392"/><path d="m96 488h-48l8-32h32z" fill="#d5d5d3"/><path d="m92 472h-40l4-16h32z" fill="#cececc"/><rect fill="#348ed8" height="64" rx="8" width="96" x="392" y="392"/><path d="m464 488h-48l8-32h32z" fill="#d5d5d3"/><path d="m460 472h-40l4-16h32z" fill="#cececc"/><path d="m112 384h-80a16.019 16.019 0 0 0 -16 16v48a16.019 16.019 0 0 0 16 16h21.754l-4 16h-9.754v16h64v-16h-9.754l-4-16h21.754a16.019 16.019 0 0 0 16-16v-48a16.019 16.019 0 0 0 -16-16zm-34.246 96h-11.508l4-16h3.508zm34.246-32h-80v-48h80l.01 48zm0-208h-80a16.019 16.019 0 0 0 -16 16v48a16.019 16.019 0 0 0 16 16h21.754l-4 16h-9.754v16h64v-16h-9.754l-4-16h21.754a16.019 16.019 0 0 0 16-16v-48a16.019 16.019 0 0 0 -16-16zm-34.246 96h-11.508l4-16h3.508zm34.246-32h-80v-48h80l.01 48zm368 80h-80a16.019 16.019 0 0 0 -16 16v48a16.019 16.019 0 0 0 16 16h21.754l-4 16h-9.754v16h64v-16h-9.754l-4-16h21.754a16.019 16.019 0 0 0 16-16v-12h-16v12h-80v-48h80v21h16v-21a16.019 16.019 0 0 0 -16-16zm-38.246 80 4 16h-11.508l4-16zm38.246-232h-80a16.019 16.019 0 0 0 -16 16v48a16.019 16.019 0 0 0 16 16h21.754l-4 16h-9.754v16h64v-16h-9.754l-4-16h21.754a16.019 16.019 0 0 0 16-16v-48a16.019 16.019 0 0 0 -16-16zm-34.246 96h-11.508l4-16h3.508zm34.246-32h-80v-48h80l.01 48zm-80-112v-144a24.028 24.028 0 0 0 -24-24h-240a24.028 24.028 0 0 0 -24 24v14h16v-14a8.009 8.009 0 0 1 8-8h240a8.009 8.009 0 0 1 8 8v88h-256v-56h-16v112a24.028 24.028 0 0 0 24 24h240a24.028 24.028 0 0 0 24-24zm-16 0a8.009 8.009 0 0 1 -8 8h-240a8.009 8.009 0 0 1 -8-8v-40h256zm-200-8h-16v-16h16zm32 0h-16v-16h16zm32 0h-16v-16h16zm32 0h-16v-16h16zm32 0h-16v-16h16zm32 0h-16v-16h16zm-152 112h-48v-16h40v-48h16v56a8 8 0 0 1 -8 8zm32-64h16v200a8 8 0 0 1 -8 8h-88v-16h80zm104 48h40v16h-48a8 8 0 0 1 -8-8v-56h16zm-40 144h80v16h-88a8 8 0 0 1 -8-8v-200h16zm-128-352h-16v-16h16zm-16 16h16v32h-16z"/></g></svg>